<mxfile host="app.diagrams.net" agent="Mozilla/5.0 (Windows NT 10.0; Win64; x64) AppleWebKit/537.36 (KHTML, like Gecko) Chrome/135.0.0.0 Safari/537.36 Edg/135.0.0.0" version="26.2.14">
  <diagram name="Page-1" id="PXIw3RquRu3cSIpvhWi3">
    <mxGraphModel dx="1034" dy="536" grid="1" gridSize="10" guides="1" tooltips="1" connect="1" arrows="1" fold="1" page="1" pageScale="1" pageWidth="850" pageHeight="1100" math="0" shadow="0">
      <root>
        <mxCell id="0" />
        <mxCell id="1" parent="0" />
        <mxCell id="Akx1WM13JKXArrnDoVVp-2" value="User" style="swimlane;whiteSpace=wrap;html=1;startSize=23;" vertex="1" parent="1">
          <mxGeometry x="50" y="40" width="130" height="100" as="geometry" />
        </mxCell>
        <mxCell id="Akx1WM13JKXArrnDoVVp-5" value="&lt;div&gt;- id: int&amp;nbsp; &amp;nbsp; &amp;nbsp; &amp;nbsp; &amp;nbsp;&amp;nbsp;&lt;/div&gt;&lt;div&gt;- username: str&lt;/div&gt;&lt;div&gt;- email: str&lt;/div&gt;&lt;div&gt;- is_verified: bool&lt;/div&gt;" style="text;html=1;align=left;verticalAlign=middle;resizable=0;points=[];autosize=1;strokeColor=none;fillColor=none;" vertex="1" parent="Akx1WM13JKXArrnDoVVp-2">
          <mxGeometry x="10" y="30" width="110" height="70" as="geometry" />
        </mxCell>
        <mxCell id="Akx1WM13JKXArrnDoVVp-6" value="Address" style="swimlane;whiteSpace=wrap;html=1;startSize=23;" vertex="1" parent="1">
          <mxGeometry x="50" y="170" width="130" height="140" as="geometry" />
        </mxCell>
        <mxCell id="Akx1WM13JKXArrnDoVVp-7" value="&lt;div&gt;- id: int&lt;/div&gt;&lt;div&gt;- street: str&lt;/div&gt;&lt;div&gt;- city: str&lt;/div&gt;&lt;div&gt;- state: str&lt;/div&gt;&lt;div&gt;- pincode: str&lt;/div&gt;&lt;div&gt;- is_default: bool&lt;/div&gt;&lt;div&gt;- user: FK&amp;lt;User&amp;gt;&lt;/div&gt;" style="text;html=1;align=left;verticalAlign=middle;resizable=0;points=[];autosize=1;strokeColor=none;fillColor=none;" vertex="1" parent="Akx1WM13JKXArrnDoVVp-6">
          <mxGeometry x="2" y="25" width="120" height="110" as="geometry" />
        </mxCell>
      </root>
    </mxGraphModel>
  </diagram>
</mxfile>
